<svg width="1024" height="1024" xmlns="http://www.w3.org/2000/svg"><g stroke="null" fill-rule="evenodd"><path fill="#216490" d="M509.48 202.146c-10.06 16.207-25.682 41.9-33.948 55.832a2143.523 2143.523 0 0 1-19.6 32.226c-25.181 40.45-32.352 52.207-43.42 71.195-15.596 26.756-37.532 60.817-48.748 75.691-17.713 23.495-36.907 55.261-45.855 75.893-17.093 39.412-22.59 70.773-19.355 110.403 4.368 53.484 26.31 100.557 65.621 140.784 16.95 17.345 33.342 29.362 55.356 40.581 31.214 15.906 55.407 21.524 92.652 21.513 25.548-.007 37.63-1.771 59.91-8.744 71.323-22.322 125.794-77.562 146.785-148.858 2.063-7.007 4.12-15.1 4.567-17.986.45-2.885 1.77-10.98 2.935-17.986 3.543-21.324 2.134-47.774-4.2-78.799-2.043-10.01-11.915-37.703-17.155-48.125-9.448-18.79-27.357-47.245-48.415-76.92-4.808-6.775-18.801-29.597-33.54-54.707-4.356-7.42-17.007-28.328-28.112-46.464a18979.354 18979.354 0 0 1-28.83-47.214 6903.815 6903.815 0 0 0-16.466-26.98c-4.303-7.006-13.733-22.687-20.951-34.847-7.22-12.16-13.715-22.108-14.434-22.108-.718 0-2.876 2.53-4.796 5.62"/><path fill="#bad0e3" d="M372.191 396.247c-188.667 126.846-223.875 150.63-242.518 163.842-9.236 6.544-26.941 18.903-39.344 27.468l-22.554 15.568-.316 45.884c-.385 56.072-.228 59.488 3.39 73.802 4.771 18.866 16 38.691 31.808 56.151 6.846 7.565 25.6 20.824 54.525 38.553 6.47 3.966 17.836 11.194 25.255 16.06 7.42 4.867 18.548 11.9 24.731 15.63 6.183 3.731 18.66 11.458 27.729 17.171l41.05 25.87c13.51 8.515 34.537 21.552 46.727 28.972 25.146 15.303 73.03 44.998 85.254 52.867 29.593 19.053 52.818 31.98 65.588 36.51 12.67 4.494 37.162 7.301 49.823 5.71 29.27-3.674 42.88-9.8 94.513-42.53 5.358-3.398 11.091-6.973 12.74-7.944 12.3-7.253 17.97-10.765 28.478-17.648 6.595-4.32 20.759-13.215 31.476-19.768 27.776-16.985 50.168-30.845 67.448-41.75a6666.606 6666.606 0 0 1 24.73-15.528c5.36-3.338 15.476-9.743 22.483-14.233 34.765-22.278 44.246-28.29 62.729-39.768 47.616-29.57 63.985-45.157 76.99-73.307 10.467-22.655 10.574-23.454 11.197-84.16l.562-54.708-4.48-2.998c-2.464-1.648-20.054-13.789-39.091-26.979-19.037-13.19-36.167-24.993-38.07-26.23-1.9-1.236-20.44-13.714-41.201-27.728s-47.556-31.888-59.545-39.72a320276.487 320276.487 0 0 0-29.833-19.485c-24.567-16.042-71.949-49.524-106.77-75.45-5.162-3.842-9.693-6.986-10.07-6.986-1.314 0 25.114 42.83 36.529 59.204 21.553 30.912 30.887 46.175 42.17 68.947 6.997 14.124 15.14 37.467 17.039 48.848.47 2.81 1.217 6.797 1.664 8.858 4.835 22.33 4.583 59.666-.564 83.935-10.555 49.76-33.868 90.03-71.388 123.307-16.885 14.977-25.68 20.95-46.465 31.566-17.274 8.822-35.303 15.301-55.457 19.928-18.896 4.34-60.645 3.959-82.436-.75-41.572-8.985-77.095-29.355-108.09-61.984-31.39-33.046-51.38-71.252-60.078-114.826-3.22-16.135-3.585-58.124-.664-76.68 5.964-37.886 28.133-85.362 59.14-126.652 6.415-8.542 32.492-47.568 39.812-59.58 1.884-3.09 2.803-5.62 2.045-5.62-.76 0-13.671 8.262-28.691 18.36"/><path fill="#73fcfe" d="M501.691 7.878c-16.138 1.602-35.482 8.004-54.038 17.886-9.279 4.94-17.692 9.973-18.696 11.183-1.004 1.21-2.368 2.2-3.03 2.2-.663 0-6.483 3.524-12.933 7.83-6.448 4.306-14.76 9.458-18.47 11.45-3.71 1.99-9.443 5.475-12.74 7.744-3.298 2.268-15.776 10.05-27.73 17.294-37.163 22.52-49.82 30.24-61.528 37.528l-11.318 7.046 3.82 3.891c4.12 4.198 18.342 14.984 33.405 25.335 39.104 26.87 69.177 48.186 128.489 91.077 11.92 8.62 22.36 15.443 23.2 15.163 1.624-.541 5.402-6.414 16.572-25.761 6.415-11.112 19.34-31.826 24.843-39.814 1.294-1.878 3.035-2.993 3.869-2.479.833.516 4.784 6.532 8.78 13.371 3.996 6.84 15.032 25.25 24.524 40.913a14264.714 14264.714 0 0 1 26.691 44.216c5.19 8.656 11.3 18.755 13.578 22.443a9201.622 9201.622 0 0 1 22.702 37.038c16.98 27.805 13.281 23.825 40.644 43.746 37.624 27.393 71.646 51.26 92.14 64.643l29.833 19.485c11.99 7.832 38.784 25.706 59.545 39.72 20.76 14.014 39.304 26.492 41.21 27.728 14.494 9.41 69.78 47.815 73.721 51.213 2.707 2.335 5.575 4.245 6.37 4.245 2.037 0 1.943-280.995-.099-295.673-1.81-13.02-7.428-29.35-13.01-37.82-2.171-3.298-5.688-8.69-7.811-11.985-7.543-11.694-26.65-28.979-42.084-38.068-4.534-2.67-14.825-9.026-22.869-14.123-16.766-10.624-87.928-54.717-113.525-70.341-18.93-11.556-20.613-12.615-43.467-27.359-23.078-14.888-23.958-15.436-51.71-32.208-14.014-8.47-30.876-18.904-37.471-23.186-21.302-13.831-49.844-30.182-62.202-35.632-9.944-4.387-30.917-9.7-41.219-10.441-4.121-.297-12.215-.07-17.986.502"/><path fill="#5fc3f8" d="M275.366 131.575c-2.474 1.307-10.905 6.562-18.736 11.679-7.831 5.117-23.007 14.575-33.724 21.017s-21.502 13.13-23.97 14.864c-5.998 4.216-20.406 12.894-21.41 12.894-.441 0-2.889 1.568-5.44 3.484-2.55 1.915-5.649 3.946-6.886 4.513-1.236.566-4.09 2.203-6.341 3.636a4269.155 4269.155 0 0 1-15.738 9.913c-39.946 25.065-55.64 41.428-67.372 70.24-8.642 21.226-8.28 13.484-8.051 171.953.116 80.344.376 146.245.578 146.446.37.37 27.44-18.228 66.176-45.465 11.529-8.107 36.822-25.39 56.206-38.406 69.992-47 154.78-104.095 180.182-121.333 14.262-9.68 27.281-17.983 28.93-18.454 1.831-.523 7.079-7.8 13.49-18.712 5.77-9.82 15.55-25.966 21.733-35.877 12.477-20.004 28.463-45.865 34.972-56.577 2.337-3.843 3.17-6.093 1.853-5-2.72 2.257-5.969.226-40.573-25.355-20.372-15.06-74.72-53.612-100.422-71.234-30.009-20.573-42.69-30.023-45.306-33.756-2.479-3.54-4.195-3.62-10.151-.47"/></g></svg>